<?xml version="1.0" standalone="no"?>
<!DOCTYPE svg PUBLIC "-//W3C//DTD SVG 20010904//EN"
 "http://www.w3.org/TR/2001/REC-SVG-20010904/DTD/svg10.dtd">
<svg version="1.0" xmlns="http://www.w3.org/2000/svg"
 width="956.000000pt" height="956.000000pt" viewBox="0 0 956.000000 956.000000"
 preserveAspectRatio="xMidYMid meet">
<metadata>
Created by potrace 1.14, written by Peter Selinger 2001-2017
</metadata>
<g transform="translate(0.000000,956.000000) scale(0.100000,-0.100000)"
fill="#000000" stroke="none">
<path d="M4529 9556 c-2 -2 -51 -6 -109 -10 -58 -4 -114 -9 -125 -11 -11 -3
-45 -7 -75 -9 -67 -6 -187 -23 -255 -36 -27 -5 -66 -12 -85 -15 -19 -3 -86
-17 -149 -31 -1088 -243 -2078 -878 -2749 -1764 -39 -52 -76 -100 -80 -106
-27 -32 -175 -256 -188 -284 -4 -8 -10 -17 -14 -20 -12 -9 -209 -366 -215
-390 -1 -3 -16 -36 -34 -75 -102 -216 -210 -500 -257 -673 -31 -114 -96 -379
-104 -422 -37 -211 -48 -281 -55 -355 -3 -33 -8 -70 -10 -83 -12 -73 -20 -269
-20 -502 0 -273 4 -341 30 -570 46 -404 165 -852 340 -1280 46 -111 200 -422
259 -519 31 -52 56 -96 56 -98 0 -2 46 -73 101 -156 243 -364 506 -665 844
-967 48 -43 224 -184 280 -226 22 -16 42 -31 45 -34 18 -20 329 -221 448 -289
436 -251 952 -446 1422 -536 47 -9 94 -18 105 -20 38 -8 221 -34 275 -40 30
-3 64 -8 75 -10 56 -11 267 -20 490 -20 292 0 410 7 665 40 64 9 264 44 340
60 14 3 34 7 45 9 26 5 229 59 320 84 61 18 203 66 345 117 42 15 197 79 230
95 8 4 85 42 171 84 925 447 1697 1215 2165 2151 44 88 88 178 97 200 9 22 30
74 47 115 102 244 221 630 257 830 2 14 10 57 18 95 18 89 23 119 31 175 3 25
7 47 9 50 2 3 6 46 10 95 4 50 9 92 10 95 10 17 20 257 20 475 0 222 -7 398
-21 505 -2 19 -6 51 -8 70 -13 104 -19 146 -37 255 -45 264 -174 729 -249 900
-5 11 -23 54 -40 95 -17 41 -38 93 -48 115 -33 80 -200 403 -261 505 -103 171
-255 392 -358 520 -547 680 -1202 1168 -1993 1485 -400 159 -870 273 -1285
311 -38 3 -81 8 -95 11 -28 5 -626 14 -631 9z"/>
</g>
</svg>
