<?xml version="1.0" encoding="utf-8"?>
<!-- Generator: Adobe Illustrator 23.0.0, SVG Export Plug-In . SVG Version: 6.00 Build 0)  -->
<svg version="1.1" id="Слой_1" xmlns="http://www.w3.org/2000/svg" xmlns:xlink="http://www.w3.org/1999/xlink" x="0px" y="0px"
	 viewBox="0 0 108.6 108.6" style="enable-background:new 0 0 108.6 108.6;" xml:space="preserve">
<style type="text/css">
	.st0{fill-rule:evenodd;clip-rule:evenodd;fill:#595B4A;}
</style>
<title>Монтажная область 5</title>
<path class="st0" d="M29,22.4c13.3-23,54.6-16.5,54.6,15.8c0,6.9-4.2,14.4-7.4,20.2L29,22.4z M96.7,90.1L70.3,69.8
	c-1,0.4-2,0.6-3.1,0.5c-5.9,0-20.3-0.1-26-0.1c-3,0-5-1.2-5-3.3c0-6.7-11.2-17.9-11.2-28c0-1.3,0.1-2.6,0.2-3.8L0,15.8l4.6-6.2
	l95.1,76.1L96.7,90.1z M70,74.9c0,0-0.2,6.6-0.2,9.5c0,4-6.3,9.1-9,9.6c-0.6,7.8-12.1,7.8-12.5,0c-1.9-0.4-9.1-4.9-9.1-9.4
	c0-3.4,0.2-9.5,0.2-9.5L70,74.9z"/>
</svg>
